<svg width="26" height="26" viewBox="0 0 26 26" fill="none" xmlns="http://www.w3.org/2000/svg">
    <path d="M13.4643 12.0713V3.48574C13.4643 3.30103 13.3909 3.12389 13.2603 2.99329C13.1297 2.86268 12.9526 2.78931 12.7679 2.78931C12.5832 2.78931 12.406 2.86268 12.2754 2.99329C12.1448 3.12389 12.0714 3.30103 12.0714 3.48574V12.0713H3.48586C3.30115 12.0713 3.12401 12.1447 2.99341 12.2753C2.8628 12.4059 2.78943 12.583 2.78943 12.7677C2.78943 12.9524 2.8628 13.1296 2.99341 13.2602C3.12401 13.3908 3.30115 13.4642 3.48586 13.4642H12.0714V22.0562C12.0714 22.2409 12.1448 22.4181 12.2754 22.5487C12.406 22.6793 12.5832 22.7527 12.7679 22.7527C12.9526 22.7527 13.1297 22.6793 13.2603 22.5487C13.3909 22.4181 13.4643 22.2409 13.4643 22.0562V13.4642L22.0536 13.467C22.2383 13.467 22.4154 13.3936 22.546 13.263C22.6766 13.1324 22.75 12.9552 22.75 12.7705C22.75 12.5858 22.6766 12.4087 22.546 12.2781C22.4154 12.1475 22.2383 12.0741 22.0536 12.0741L13.4643 12.0713Z" fill="#535353" stroke="#535353"/>
</svg>
