<svg width="26" height="26" viewBox="0 0 26 26" fill="none" xmlns="http://www.w3.org/2000/svg">
<path d="M0 0H26V26H0V0Z" fill="white" fill-opacity="0.01"/>
<path d="M13.383 5.18105L5.33921 13.2248C4.42512 14.139 3.9116 15.3789 3.9116 16.6717C3.9116 17.9645 4.42512 19.2044 5.33921 20.1186V20.1186C5.7919 20.5714 6.32936 20.9305 6.92087 21.1756C7.51239 21.4206 8.14638 21.5467 8.78664 21.5467C9.42691 21.5467 10.0609 21.4206 10.6524 21.1756C11.2439 20.9305 11.7814 20.5714 12.2341 20.1186L21.8097 10.543C22.4191 9.93353 22.7615 9.10691 22.7615 8.24499C22.7615 7.38308 22.4191 6.55646 21.8097 5.94697V5.94697C21.5079 5.64512 21.1496 5.40568 20.7552 5.24232C20.3609 5.07896 19.9382 4.99487 19.5114 4.99487C19.0845 4.99487 18.6619 5.07896 18.2675 5.24232C17.8732 5.40568 17.5149 5.64512 17.2131 5.94697L7.63804 15.5226C7.48712 15.6735 7.36739 15.8526 7.28571 16.0498C7.20403 16.2469 7.16199 16.4583 7.16199 16.6717C7.16199 16.8851 7.20403 17.0965 7.28571 17.2936C7.36739 17.4908 7.48712 17.6699 7.63804 17.8208V17.8208C7.94277 18.1255 8.35602 18.2966 8.78692 18.2966C9.21781 18.2966 9.63106 18.1255 9.93579 17.8208L17.9795 9.7771" stroke="#535353" stroke-width="2" stroke-linecap="round" stroke-linejoin="round"/>
</svg>
