<svg width="26" height="26" viewBox="0 0 26 26" fill="none" xmlns="http://www.w3.org/2000/svg">
<path d="M21.125 3.25H4.875C4.44402 3.25 4.0307 3.4212 3.72595 3.72595C3.4212 4.0307 3.25 4.44402 3.25 4.875V21.125C3.25 21.556 3.4212 21.9693 3.72595 22.274C4.0307 22.5788 4.44402 22.75 4.875 22.75H21.125C21.556 22.75 21.9693 22.5788 22.274 22.274C22.5788 21.9693 22.75 21.556 22.75 21.125V4.875C22.75 4.44402 22.5788 4.0307 22.274 3.72595C21.9693 3.4212 21.556 3.25 21.125 3.25Z" stroke="#535353" stroke-width="2" stroke-linecap="round" stroke-linejoin="round"/>
<path d="M22.75 19.5001L16.7917 14.0834L11.375 18.9584L7.58333 15.7084L3.25 18.9584M9.75 12.4584C10.4683 12.4584 11.1572 12.1731 11.6651 11.6652C12.173 11.1573 12.4583 10.4684 12.4583 9.75008C12.4583 9.03179 12.173 8.34291 11.6651 7.835C11.1572 7.32709 10.4683 7.04175 9.75 7.04175C9.03171 7.04175 8.34283 7.32709 7.83492 7.835C7.32701 8.34291 7.04167 9.03179 7.04167 9.75008C7.04167 10.4684 7.32701 11.1573 7.83492 11.6652C8.34283 12.1731 9.03171 12.4584 9.75 12.4584V12.4584Z" stroke="#535353" stroke-width="2" stroke-linecap="round" stroke-linejoin="round"/>
</svg>
