<svg width="26" height="26" viewBox="0 0 26 26" fill="none" xmlns="http://www.w3.org/2000/svg">
<path d="M23.3417 6.48877L19.5115 2.65861C19.0884 2.23554 18.4025 2.23554 17.9794 2.65861L12.6172 8.02084C12.1941 8.44391 12.1941 9.12983 12.6172 9.5529L16.4474 13.3831C16.8704 13.8061 17.5564 13.8061 17.9794 13.3831L23.3417 8.02084C23.7647 7.59777 23.7647 6.91184 23.3417 6.48877Z" stroke="#535353" stroke-width="2" stroke-linejoin="round"/>
<path d="M13.3837 16.4473L9.55349 12.6171C9.13042 12.194 8.44449 12.194 8.02143 12.6171L2.6592 17.9793C2.23613 18.4024 2.23613 19.0883 2.6592 19.5114L6.48936 23.3416C6.91243 23.7646 7.59836 23.7646 8.02143 23.3416L13.3837 17.9793C13.8067 17.5563 13.8067 16.8703 13.3837 16.4473Z" stroke="#535353" stroke-width="2" stroke-linejoin="round"/>
<path d="M16.8307 9.16992L9.17042 16.8302" stroke="#535353" stroke-width="2" stroke-linecap="round" stroke-linejoin="round"/>
</svg>
