<svg width="26" height="26" viewBox="0 0 26 26" fill="none" xmlns="http://www.w3.org/2000/svg">
<path d="M0 0H26V26H0V0Z" fill="white" fill-opacity="0.01"/>
<path d="M16.7917 5.95841C16.7917 3.86434 15.0941 2.16675 13 2.16675C10.9059 2.16675 9.20834 3.86434 9.20834 5.95841V13.0001C9.20834 15.0942 10.9059 16.7917 13 16.7917C15.0941 16.7917 16.7917 15.0942 16.7917 13.0001V5.95841Z" stroke="#535353" stroke-width="2" stroke-linejoin="round"/>
<path d="M13 20.5833C8.51283 20.5833 4.875 16.9454 4.875 12.4583L5.02107 13.9999L5.5 15.5886L6.31979 17.0844L7.33684 18.2843L8.5 19.2242L9.97115 19.9999L13 20.5833ZM13 20.5833C17.4872 20.5833 21.125 16.9454 21.125 12.4583L20.9789 13.9999L20.5 15.5886L19.7381 16.9999L18.6632 18.2843L17.5 19.2242L16.0288 19.9999L13 20.5833ZM13 20.5833V23.8333" stroke="#535353" stroke-width="2" stroke-linecap="round" stroke-linejoin="round"/>
</svg>
