<svg width="16" height="16" viewBox="0 0 16 16" fill="none" xmlns="http://www.w3.org/2000/svg">
    <path d="M8 14.5C8.374 14.5 9.836 13.432 11.001 12.107C12.554 10.342 13.5 8.372 13.5 6.5C13.5 3.537 11.065 1.5 8 1.5C4.935 1.5 2.5 3.537 2.5 6.5C2.5 8.38 3.446 10.35 4.999 12.113C6.163 13.435 7.625 14.5 8 14.5ZM8 7.7C8.26522 7.7 8.51957 7.59464 8.70711 7.40711C8.89464 7.21957 9 6.96522 9 6.7C9 6.43478 8.89464 6.18043 8.70711 5.99289C8.51957 5.80536 8.26522 5.7 8 5.7C7.73478 5.7 7.48043 5.80536 7.29289 5.99289C7.10536 6.18043 7 6.43478 7 6.7C7 6.96522 7.10536 7.21957 7.29289 7.40711C7.48043 7.59464 7.73478 7.7 8 7.7ZM8 9.9C7.15131 9.9 6.33737 9.56286 5.73726 8.96274C5.13714 8.36263 4.8 7.54869 4.8 6.7C4.8 5.85131 5.13714 5.03737 5.73726 4.43726C6.33737 3.83714 7.15131 3.5 8 3.5C8.84869 3.5 9.66263 3.83714 10.2627 4.43726C10.8629 5.03737 11.2 5.85131 11.2 6.7C11.2 7.54869 10.8629 8.36263 10.2627 8.96274C9.66263 9.56286 8.84869 9.9 8 9.9Z" fill="#979797"/>
</svg>
