<svg width="26" height="26" viewBox="0 0 26 26" fill="none" xmlns="http://www.w3.org/2000/svg">
<path d="M21.125 3.25H4.875C4.44402 3.25 4.0307 3.4212 3.72595 3.72595C3.4212 4.0307 3.25 4.44402 3.25 4.875V21.125C3.25 21.556 3.4212 21.9693 3.72595 22.274C4.0307 22.5788 4.44402 22.75 4.875 22.75H21.125C21.556 22.75 21.9693 22.5788 22.274 22.274C22.5788 21.9693 22.75 21.556 22.75 21.125V4.875C22.75 4.44402 22.5788 4.0307 22.274 3.72595C21.9693 3.4212 21.556 3.25 21.125 3.25Z" stroke="#535353" stroke-width="2" stroke-linecap="round" stroke-linejoin="round"/>
<path d="M11.375 3.25L8.125 8.125M11.1042 15.1667V11.8831L13.9479 13.5243L16.7917 15.1667L13.9479 16.8085L11.1042 18.4502V15.1667ZM3.25 8.125H22.75H3.25ZM17.875 3.25L14.625 8.125L17.875 3.25Z" stroke="#535353" stroke-width="2" stroke-linecap="round" stroke-linejoin="round"/>
</svg>
