<svg width="30" height="30" viewBox="0 0 30 30" fill="none" xmlns="http://www.w3.org/2000/svg">
    <path d="M17.2876 23.75C17.1008 23.7506 16.9163 23.7094 16.7476 23.6294C16.5789 23.5494 16.4302 23.4325 16.3126 23.2875L10.2751 15.7875C10.0912 15.5638 9.99072 15.2833 9.99072 14.9938C9.99072 14.7042 10.0912 14.4237 10.2751 14.2L16.5251 6.70001C16.7373 6.44474 17.0421 6.28421 17.3727 6.25373C17.7032 6.22326 18.0323 6.32534 18.2876 6.53751C18.5429 6.74968 18.7034 7.05457 18.7339 7.3851C18.7643 7.71564 18.6623 8.04474 18.4501 8.30001L12.8626 15L18.2626 21.7C18.4154 21.8835 18.5125 22.1069 18.5424 22.3439C18.5722 22.5808 18.5336 22.8213 18.431 23.037C18.3284 23.2526 18.1662 23.4344 17.9636 23.5608C17.761 23.6871 17.5264 23.7528 17.2876 23.75Z" fill="black"/>
</svg>
