<svg width="200" height="200" viewBox="0 0 200 200" fill="none" xmlns="http://www.w3.org/2000/svg">
    <path d="M29.6432 151.713C35.0832 164.988 43.9532 167.751 50.1895 164.988C62.2503 159.644 93.58 153.674 125.757 167.708C168.373 186.296 177.44 158.252 163.839 129.884C150.239 101.517 145.628 72.8292 161.308 57.0241C176.987 41.219 156.469 16.4941 120.031 42.231C96.484 58.8631 79.2029 55.1596 69.923 50.4578C61.177 46.0265 51.4504 41.3938 42.3375 45.011C31.28 49.4003 26.923 58.9165 43.7465 80.1758C67.5868 110.302 17.4487 121.958 29.6432 151.713Z" fill="#979797" fill-opacity="0.3"/>
    <path d="M51.7931 87.0459H136.456V152.157C136.456 152.289 136.403 152.417 136.31 152.51C136.216 152.604 136.089 152.657 135.956 152.657H52.2931C52.1605 152.657 52.0333 152.604 51.9395 152.51C51.8458 152.417 51.7931 152.289 51.7931 152.157V87.0459Z" fill="#979797" fill-opacity="0.5"/>
    <path d="M115.217 61.5308H75.8504L51.7931 87.0461H136.456L115.217 61.5308Z" fill="#979797"/>
    <path d="M59.8121 51.3247L75.8503 61.5309L51.793 87.0462L33.5677 73.195L59.8121 51.3247Z" fill="#979797" fill-opacity="0.7"/>
    <path d="M131.255 51.3247L115.217 61.5309L136.456 87.0462L157.499 73.195L131.255 51.3247Z" fill="#979797" fill-opacity="0.7"/>
    <path d="M86.1929 51.8465C86.6455 51.6319 86.9976 51.2507 87.1757 50.7825C87.3538 50.3144 87.344 49.7955 87.1485 49.3344L79.9336 32.3216C79.8314 32.0806 79.6815 31.8628 79.493 31.6812C79.3045 31.4996 79.0811 31.3581 78.8365 31.265C78.5918 31.172 78.3309 31.1293 78.0694 31.1397C77.8078 31.1501 77.5511 31.2132 77.3146 31.3254L75.9246 31.9845C75.6881 32.0966 75.4767 32.2554 75.3031 32.4514C75.1296 32.6473 74.9974 32.8763 74.9146 33.1246C74.8318 33.3729 74.8001 33.6354 74.8213 33.8963C74.8426 34.1572 74.9164 34.4111 75.0383 34.6427L83.6431 50.9963C83.8763 51.4396 84.2719 51.7756 84.7471 51.934C85.2222 52.0924 85.7403 52.0611 86.1929 51.8465Z" fill="#979797"/>
    <path d="M95.2385 50.1971C95.566 50.1738 95.8719 50.0248 96.0922 49.7812C96.3124 49.5377 96.4301 49.2184 96.4206 48.8902L96.0642 36.7786C96.0591 36.607 96.0194 36.4383 95.9475 36.2824C95.8755 36.1266 95.7728 35.9869 95.6455 35.8718C95.5182 35.7567 95.369 35.6685 95.2067 35.6125C95.0445 35.5566 94.8726 35.534 94.7014 35.5462L93.6951 35.6179C93.5239 35.6301 93.357 35.6767 93.2044 35.755C93.0517 35.8334 92.9165 35.9417 92.8068 36.0737C92.6971 36.2056 92.6152 36.3583 92.566 36.5227C92.5168 36.6871 92.5014 36.8597 92.5206 37.0302L93.8833 49.0702C93.9201 49.3966 94.0817 49.6961 94.3343 49.9061C94.5868 50.1161 94.9108 50.2204 95.2385 50.1971V50.1971Z" fill="#979797"/>
    <path d="M102.222 54.6743C103.123 55.1952 104.387 54.7172 105.089 53.5905L117.545 33.5853C118.289 32.3902 118.113 30.9336 117.158 30.3811L115.826 29.6111C114.87 29.0585 113.52 29.6323 112.855 30.8734L101.73 51.6485C101.104 52.8186 101.321 54.1533 102.222 54.6743Z" fill="#979797"/>
</svg>
