<svg width="200" height="200" viewBox="0 0 200 200" fill="none" xmlns="http://www.w3.org/2000/svg">
    <path d="M63.1231 50.7558C63.1231 50.7558 85.8669 68.0147 120.443 35.7434C151.15 7.08341 176.223 52.3023 176.399 73.9569C176.626 102.009 145.691 124.453 160.704 142.878C175.716 161.302 130.932 191.727 106.795 165.396C76.7705 132.642 68.6364 159.255 51.5223 159.255C39.2394 159.255 14.0212 128.735 31.0508 106.029C45.3808 86.9222 37.5655 80.581 33.7808 73.9569C28.3215 64.4035 41.2868 38.4729 63.1231 50.7558Z" fill="#979797" fill-opacity="0.3"/>
    <path d="M164.548 38.991C164.548 39.4156 164.529 39.8339 164.492 40.2482C164.162 43.9911 162.379 47.456 159.526 49.9005C156.672 52.3451 152.975 53.575 149.225 53.3269C145.476 53.0787 141.973 51.3722 139.467 48.5729C136.96 45.7735 135.65 42.1039 135.816 38.3501C135.982 34.5963 137.611 31.0568 140.355 28.4896C143.099 25.9225 146.739 24.5319 150.495 24.6156C154.252 24.6994 157.826 26.251 160.453 28.9379C163.079 31.6248 164.549 35.2335 164.548 38.991V38.991Z" fill="#979797" fill-opacity="0.5"/>
    <path d="M151.989 40.0915C151.061 40.8128 149.765 42.2493 150.157 45.4457C149.722 46.6864 148.176 49.0564 148.176 50.1898C148.176 51.3232 146.321 51.5298 146.115 51.2198C145.909 50.9098 145.806 46.995 144.673 46.2737C143.539 45.5524 143.745 42.255 143.745 42.255C143.745 42.255 144.157 41.0184 142.818 40.1941C141.478 39.3698 140.545 37.4119 141.734 36.2784C142.921 35.1449 139.726 34.4236 139.314 33.5993C139.139 33.2493 138.467 32.4658 137.754 31.6847C139.296 29.0737 141.621 27.0143 144.399 25.7988C145.452 26.8988 146.363 28.3069 146.115 29.7866C146.156 30.5079 149.287 31.6414 147.754 33.1866C146.218 34.7323 144.135 36.8966 147.754 37.6175C151.37 38.3399 152.916 39.3699 151.989 40.0915Z" fill="#979797"/>
    <path d="M160.22 28.7051C159.449 30.3311 157.516 31.6418 156.42 31.6418C155.184 30.3018 152.504 32.1571 152.253 29.9931C152.107 28.7319 153.545 26.774 154.771 25.3562C156.816 26.0498 158.678 27.1944 160.22 28.7051Z" fill="#979797"/>
    <path d="M164.492 40.2482C164.185 43.8063 162.561 47.1217 159.938 49.5448C159.462 49.0893 159.06 48.5556 159.202 48.129C159.511 47.2016 160.768 45.2437 160.552 44.0072C160.35 42.8531 161.415 39.362 164.492 40.2482Z" fill="#979797"/>
    <path d="M141.092 111.683C140.632 114.522 139.87 117.303 138.82 119.98C131.975 137.514 113.614 148.497 94.2905 145.34C83.6226 143.594 74.0846 137.683 67.7732 128.907C61.4617 120.131 58.8934 109.208 60.6326 98.5387C60.721 97.9974 60.8241 97.4516 60.9317 96.9204C65.2912 75.5916 85.7566 61.3395 107.434 64.8804C113.903 65.9261 120.021 68.525 125.265 72.4543C126.988 73.7408 128.605 75.1641 130.099 76.7102C134.537 81.2749 137.843 86.8162 139.752 92.8896C141.661 98.963 142.12 105.399 141.092 111.682V111.683Z" fill="#979797" fill-opacity="0.7"/>
    <path d="M138.82 119.98C131.057 124.978 121.89 129.6 111.784 133.423C101.493 137.313 91.387 139.941 82.1248 141.318C60.3595 144.563 43.2662 140.937 39.4148 130.749C35.808 121.234 44.6793 108.346 60.9318 96.9203C60.8242 97.4515 60.7211 97.9973 60.6327 98.5386C60.3079 100.52 60.1317 102.523 60.1054 104.531C50.7414 111.761 45.8683 118.842 47.7893 123.921C49.657 128.859 57.5869 130.961 68.8679 130.365C79.8965 129.784 94.1279 126.607 109.024 120.976C121.907 116.099 133.205 110.172 141.617 104.218C152.879 96.2558 158.987 88.2442 156.879 82.6552C154.711 76.9176 144.368 75.0052 130.099 76.7105C128.605 75.1644 126.988 73.7412 125.265 72.4546C145.238 70.1463 160.633 73.9186 164.262 83.5139C168.149 93.7767 157.548 107.945 138.82 119.98Z" fill="#979797"/>
</svg>
