<svg width="26" height="26" viewBox="0 0 26 26" fill="none" xmlns="http://www.w3.org/2000/svg">
    <path d="M8.0001 8.0001H8.0101M8.0001 4H13.0002C13.2629 3.99951 13.5231 4.05104 13.7658 4.15162C14.0085 4.2522 14.2289 4.39984 14.4142 4.58602L21.4144 11.5862C21.7894 11.9612 22 12.4699 22 13.0002C22 13.5306 21.7894 14.0392 21.4144 14.4142L14.4142 21.4144C14.0392 21.7894 13.5306 22 13.0002 22C12.4699 22 11.9612 21.7894 11.5862 21.4144L4.58601 14.4142C4.40001 14.2288 4.25249 14.0084 4.15193 13.7657C4.05136 13.523 3.99973 13.2629 4 13.0002V8.0001C4 6.93921 4.42144 5.92177 5.1716 5.1716C5.92176 4.42144 6.9392 4 8.0001 4V4Z" stroke="#333333" stroke-width="2" stroke-linecap="round" stroke-linejoin="round"/>
</svg>
