<svg width="26" height="26" viewBox="0 0 26 26" fill="none" xmlns="http://www.w3.org/2000/svg">
    <path d="M23.9941 10.4609H17.4941C17.3824 10.4609 17.291 10.5523 17.291 10.6641V11.8828C17.291 11.9945 17.3824 12.0859 17.4941 12.0859H23.9941C24.1058 12.0859 24.1972 11.9945 24.1972 11.8828V10.6641C24.1972 10.5523 24.1058 10.4609 23.9941 10.4609ZM20.5917 13.9141H17.4941C17.3824 13.9141 17.291 14.0055 17.291 14.1172V15.3359C17.291 15.4477 17.3824 15.5391 17.4941 15.5391H20.5917C20.7035 15.5391 20.7949 15.4477 20.7949 15.3359V14.1172C20.7949 14.0055 20.7035 13.9141 20.5917 13.9141ZM12.1189 8.18848H11.0195C10.8621 8.18848 10.7351 8.31543 10.7351 8.47285V14.7697C10.7351 14.8611 10.7783 14.9449 10.8519 14.9982L14.6326 17.7557C14.7595 17.8471 14.9373 17.8217 15.0287 17.6947L15.6812 16.8035V16.801C15.7726 16.674 15.7447 16.4963 15.6177 16.4049L12.4007 14.0791V8.47285C12.4033 8.31543 12.2738 8.18848 12.1189 8.18848Z" fill="#757575"/>
    <path d="M20.4344 17.1107H18.9668C18.8246 17.1107 18.6901 17.1844 18.6139 17.3062C18.2914 17.8166 17.9156 18.2889 17.484 18.7205C16.7401 19.4645 15.8742 20.0484 14.9119 20.4547C13.9141 20.8762 12.8553 21.0895 11.7635 21.0895C10.6692 21.0895 9.61037 20.8762 8.61505 20.4547C7.65275 20.0484 6.78693 19.4645 6.04299 18.7205C5.29904 17.9766 4.71506 17.1107 4.30881 16.1484C3.88732 15.1531 3.67404 14.0943 3.67404 13C3.67404 11.9057 3.88732 10.8494 4.30881 9.85157C4.71506 8.88926 5.29904 8.02344 6.04299 7.2795C6.78693 6.53555 7.65275 5.95157 8.61505 5.54532C9.61037 5.12383 10.6717 4.91055 11.7635 4.91055C12.8578 4.91055 13.9166 5.12383 14.9119 5.54532C15.8742 5.95157 16.7401 6.53555 17.484 7.2795C17.9156 7.71114 18.2914 8.1834 18.6139 8.69375C18.6901 8.81563 18.8246 8.88926 18.9668 8.88926H20.4344C20.6096 8.88926 20.7213 8.70645 20.6426 8.55157C18.9871 5.2584 15.6305 3.11797 11.8828 3.07481C6.39591 3.00626 1.8383 7.49786 1.82814 12.9797C1.81799 18.4717 6.26896 22.9277 11.761 22.9277C15.5569 22.9277 18.9693 20.7797 20.6426 17.4484C20.7213 17.2936 20.607 17.1107 20.4344 17.1107Z" fill="#757575"/>
</svg>
