<svg width="26" height="26" viewBox="0 0 26 26" fill="none" xmlns="http://www.w3.org/2000/svg">
    <path d="M14.5275 13L19.1858 8.35249C19.3898 8.1485 19.5044 7.87182 19.5044 7.58333C19.5044 7.29483 19.3898 7.01815 19.1858 6.81416C18.9818 6.61016 18.7052 6.49556 18.4167 6.49556C18.1282 6.49556 17.8515 6.61016 17.6475 6.81416L13 11.4725L8.35249 6.81416C8.1485 6.61016 7.87182 6.49556 7.58333 6.49556C7.29483 6.49556 7.01816 6.61016 6.81416 6.81416C6.61017 7.01815 6.49556 7.29483 6.49556 7.58333C6.49556 7.87182 6.61017 8.1485 6.81416 8.35249L11.4725 13L6.81416 17.6475C6.71262 17.7482 6.63203 17.868 6.57703 18C6.52203 18.132 6.49371 18.2736 6.49371 18.4167C6.49371 18.5597 6.52203 18.7013 6.57703 18.8333C6.63203 18.9653 6.71262 19.0851 6.81416 19.1858C6.91487 19.2874 7.03469 19.368 7.1667 19.423C7.29872 19.478 7.44032 19.5063 7.58333 19.5063C7.72634 19.5063 7.86794 19.478 7.99995 19.423C8.13197 19.368 8.25178 19.2874 8.35249 19.1858L13 14.5275L17.6475 19.1858C17.7482 19.2874 17.868 19.368 18 19.423C18.132 19.478 18.2736 19.5063 18.4167 19.5063C18.5597 19.5063 18.7013 19.478 18.8333 19.423C18.9653 19.368 19.0851 19.2874 19.1858 19.1858C19.2874 19.0851 19.368 18.9653 19.423 18.8333C19.478 18.7013 19.5063 18.5597 19.5063 18.4167C19.5063 18.2736 19.478 18.132 19.423 18C19.368 17.868 19.2874 17.7482 19.1858 17.6475L14.5275 13Z" fill="#757575"/>
</svg>
