<svg width="20" height="20" viewBox="0 0 20 20" fill="none" xmlns="http://www.w3.org/2000/svg">
    <path d="M10 18.75C7.67936 18.75 5.45376 17.8281 3.81282 16.1872C2.17187 14.5462 1.25 12.3206 1.25 10C1.25 7.67936 2.17187 5.45376 3.81282 3.81282C5.45376 2.17187 7.67936 1.25 10 1.25C12.3206 1.25 14.5462 2.17187 16.1872 3.81282C17.8281 5.45376 18.75 7.67936 18.75 10C18.75 12.3206 17.8281 14.5462 16.1872 16.1872C14.5462 17.8281 12.3206 18.75 10 18.75ZM10 20C12.6522 20 15.1957 18.9464 17.0711 17.0711C18.9464 15.1957 20 12.6522 20 10C20 7.34784 18.9464 4.8043 17.0711 2.92893C15.1957 1.05357 12.6522 0 10 0C7.34784 0 4.8043 1.05357 2.92893 2.92893C1.05357 4.8043 0 7.34784 0 10C0 12.6522 1.05357 15.1957 2.92893 17.0711C4.8043 18.9464 7.34784 20 10 20V20Z" fill="#979797"/>
    <path d="M6.56887 7.2325C6.56716 7.27287 6.57372 7.31316 6.58816 7.3509C6.60259 7.38863 6.6246 7.42302 6.65281 7.45194C6.68103 7.48085 6.71486 7.5037 6.75223 7.51906C6.7896 7.53442 6.82972 7.54197 6.87012 7.54125H7.90137C8.07387 7.54125 8.21137 7.4 8.23387 7.22875C8.34637 6.40875 8.90887 5.81125 9.91137 5.81125C10.7689 5.81125 11.5539 6.24 11.5539 7.27125C11.5539 8.065 11.0864 8.43 10.3476 8.985C9.50637 9.59625 8.84012 10.31 8.88762 11.4688L8.89137 11.74C8.89268 11.822 8.92618 11.9002 8.98465 11.9577C9.04311 12.0153 9.12185 12.0475 9.20387 12.0475H10.2176C10.3005 12.0475 10.38 12.0146 10.4386 11.956C10.4972 11.8974 10.5301 11.8179 10.5301 11.735V11.6037C10.5301 10.7062 10.8714 10.445 11.7926 9.74625C12.5539 9.1675 13.3476 8.525 13.3476 7.17625C13.3476 5.2875 11.7526 4.375 10.0064 4.375C8.42262 4.375 6.68762 5.1125 6.56887 7.2325V7.2325ZM8.51512 14.4362C8.51512 15.1025 9.04637 15.595 9.77762 15.595C10.5389 15.595 11.0626 15.1025 11.0626 14.4362C11.0626 13.7462 10.5376 13.2613 9.77637 13.2613C9.04637 13.2613 8.51512 13.7462 8.51512 14.4362Z" fill="#979797"/>
</svg>
