<svg width="20" height="20" viewBox="0 0 20 20" fill="none" xmlns="http://www.w3.org/2000/svg">
    <rect width="20" height="20" rx="10" fill="black" fill-opacity="0.3"/>
    <path d="M10.6267 9.99995L13.8667 6.75995C13.9395 6.67493 13.9775 6.56556 13.9732 6.45371C13.9689 6.34185 13.9225 6.23575 13.8434 6.15659C13.7642 6.07744 13.6581 6.03107 13.5462 6.02675C13.4344 6.02243 13.325 6.06048 13.24 6.13329L10 9.37329L6.76 6.12884C6.67498 6.05603 6.56561 6.01798 6.45376 6.0223C6.3419 6.02662 6.23579 6.07299 6.15664 6.15215C6.07749 6.2313 6.03112 6.33741 6.0268 6.44926C6.02248 6.56112 6.06052 6.67049 6.13333 6.75551L9.37333 9.99995L6.12889 13.24C6.08237 13.2798 6.04458 13.3288 6.0179 13.384C5.99122 13.4391 5.97623 13.4992 5.97387 13.5604C5.9715 13.6216 5.98182 13.6826 6.00416 13.7397C6.02651 13.7967 6.0604 13.8485 6.10371 13.8918C6.14703 13.9351 6.19882 13.969 6.25586 13.9913C6.31289 14.0137 6.37393 14.024 6.43514 14.0216C6.49634 14.0193 6.5564 14.0043 6.61154 13.9776C6.66668 13.9509 6.71571 13.9131 6.75556 13.8666L10 10.6266L13.24 13.8666C13.325 13.9394 13.4344 13.9775 13.5462 13.9732C13.6581 13.9688 13.7642 13.9225 13.8434 13.8433C13.9225 13.7642 13.9689 13.6581 13.9732 13.5462C13.9775 13.4343 13.9395 13.325 13.8667 13.24L10.6267 9.99995Z" fill="white"/>
</svg>
