<svg width="24" height="24" viewBox="0 0 24 24" fill="none" xmlns="http://www.w3.org/2000/svg">
    <path d="M11 8H13V14H11V8ZM12 20C8.13 20 5 16.87 5 13C5 9.13 8.13 6 12 6C15.19 6 17.88 8.14 18.72 11.05C19 11 19.24 11 19.5 11C19.94 11 20.38 11.05 20.8 11.13C20.5 9.74 19.89 8.46 19.03 7.39L20.45 5.97C20 5.46 19.55 5 19.04 4.56L17.62 6C16.07 4.74 14.12 4 12 4C9.61305 4 7.32387 4.94821 5.63604 6.63604C3.94821 8.32387 3 10.6131 3 13C3 15.3869 3.94821 17.6761 5.63604 19.364C7.32387 21.0518 9.61305 22 12 22C12.87 22 13.7 21.87 14.5 21.65C14.05 21.11 13.7 20.5 13.45 19.85C13 19.95 12.5 20 12 20V20ZM15 1H9V3H15V1V1ZM19 13.5V12L16.75 14.25L19 16.5V15C19.663 15 20.2989 15.2634 20.7678 15.7322C21.2366 16.2011 21.5 16.837 21.5 17.5C21.5 17.9 21.41 18.28 21.24 18.62L22.33 19.71C22.75 19.08 23 18.32 23 17.5C23 15.29 21.21 13.5 19 13.5ZM19 20C18.337 20 17.7011 19.7366 17.2322 19.2678C16.7634 18.7989 16.5 18.163 16.5 17.5C16.5 17.1 16.59 16.72 16.76 16.38L15.67 15.29C15.25 15.92 15 16.68 15 17.5C15 19.71 16.79 21.5 19 21.5V23L21.25 20.75L19 18.5V20Z" fill="black"/>
</svg>
