<svg width="50" height="50" viewBox="0 0 50 50" fill="none" xmlns="http://www.w3.org/2000/svg">
    <path d="M11.2266 33.7321C16.6473 34.1016 17.8058 33.9676 17.8058 35.0647C17.8058 37.2969 10.49 37.3036 10.49 35.2344C10.4911 34.6663 10.8571 34.1853 11.2266 33.7321V33.7321ZM14.346 20.7143C10.7422 20.7143 10.5792 25.6775 14.2623 25.6775C17.8906 25.6775 17.8013 20.7143 14.346 20.7143V20.7143ZM50 5.35714V44.6429C50 46.0637 49.4356 47.4263 48.4309 48.4309C47.4263 49.4356 46.0637 50 44.6429 50H5.35714C3.93634 50 2.57373 49.4356 1.56907 48.4309C0.564412 47.4263 0 46.0637 0 44.6429L0 5.35714C0 3.93634 0.564412 2.57373 1.56907 1.56907C2.57373 0.564412 3.93634 0 5.35714 0H44.6429C46.0637 0 47.4263 0.564412 48.4309 1.56907C49.4356 2.57373 50 3.93634 50 5.35714V5.35714ZM24.6652 13.0926C24.6652 14.7098 25.6004 15.6462 27.2165 15.6462C28.8616 15.6462 29.798 14.7098 29.798 13.0926C29.798 11.4754 28.8638 10.6027 27.2188 10.6027C25.6027 10.6027 24.6652 11.4777 24.6652 13.0926ZM22.2299 18.192H16.6998C13.9096 17.4609 7.5971 17.6507 7.5971 23.4096C7.5971 25.5078 8.64621 26.981 10.0357 27.6629C8.2846 29.2667 7.45536 30.0223 7.45536 31.0938C7.45536 31.8605 7.76674 32.5692 8.70313 32.9643C7.70982 33.9018 7.14062 34.5804 7.14062 35.8571C7.14286 38.0971 9.09933 39.3973 14.2321 39.3973C19.1674 39.3973 22.0301 37.5547 22.0301 34.2935C22.0301 30.2009 18.8795 30.3516 11.4531 29.8984L12.3884 28.3996C14.2857 28.9286 20.6685 29.0949 20.6685 23.6641C20.6685 22.3594 20.1295 21.452 19.6194 20.7991L22.2288 20.6004L22.2299 18.192ZM31.6429 30.4509L30.192 30.2522C29.7656 30.1953 29.7377 30.1406 29.7377 29.6842V17.9152H23.8672L23.5558 20.2109C25.3136 20.8304 25.4531 20.7533 25.4531 21.346V29.6875C25.4531 30.3147 25.4185 30.1987 23.5558 30.4542V32.6931H31.6384L31.6429 30.4509ZM42.8571 31.5848L42.0904 29.0882C37.5223 30.8036 37.8661 27.7031 37.8661 27.221V20.4442H42.0904V17.6083H38.0926C37.7723 17.6083 37.8694 17.8895 37.8694 13.2969H35.1708C34.8594 16.3884 33.8672 17.6362 31.3761 17.9196V20.4442C33.6607 20.4442 33.5882 20.3493 33.5882 20.7277V28.1574C33.5882 31.3627 34.8638 32.7232 38.2388 32.7232C39.8516 32.7232 41.6373 32.1842 42.8571 31.5848V31.5848Z" fill="black"/>
</svg>
