<svg width="1024" height="1024" viewBox="0 0 1024 1024" fill="none" xmlns="http://www.w3.org/2000/svg">
    <path d="M1024 0H0.000243729L0 1024H367C397.5 1024 413.007 1013.5 424.003 998.5C435 983.5 442.455 940.5 442.455 836.676C439.091 782.283 318.932 734.901 265.743 725.435C255.715 742.105 189.8 750.346 160.869 746.258C126.698 741.419 79.6977 689.459 83.5958 654.982C87.4938 620.516 136.329 582.262 201.437 611.658C251.251 634.149 274.219 681.679 282.623 699.72C302.113 702.813 373.968 709.772 424.003 725.435C458.771 736.306 456.078 701.044 456.078 701.044C456.078 701.044 402.086 482.126 329.419 377.684C311.459 378.843 240.752 340.181 217.74 296.52C194.729 252.86 175.953 197.44 201.437 180.653C226.921 163.865 282.623 158.981 329.419 215.652C347.335 237.349 361.748 275.25 361.748 340.181C376.114 365.942 461.156 574.861 488.757 639.435C516.358 704.008 559.244 602.322 559.244 602.322C559.244 602.322 632.356 498.383 632.356 444.853C632.356 401.214 635.649 367.582 654.511 340.181C676.076 308.819 748.266 274.777 773.561 296.52C798.867 318.275 787.566 370.856 766.001 402.217C749.162 426.701 722.03 444.853 669.41 467.414C632.356 501.517 588.288 611.658 588.288 611.658C588.288 611.658 541.208 716.906 579.036 699.72C579.036 699.72 654.51 685.574 695.655 631.809C708.046 581.259 758.934 545.961 785.33 533.215C815.865 518.454 891.586 512.643 903.49 543.442C915.404 574.253 906.702 632.698 876.167 647.459C850.966 659.631 785.33 676.864 722.03 676.864C664.189 693.598 608.984 716.039 579.036 777.836C540.013 858.388 583.577 982.5 588.288 989.5C593 996.5 613.5 1020.5 639.5 1024H1024V0Z" fill="url(#paint0_linear_10495_12755)"/>
    <defs>
        <linearGradient id="paint0_linear_10495_12755" x1="507.337" y1="203.042" x2="507.337" y2="1053.44" gradientUnits="userSpaceOnUse">
            <stop stop-color="#12A152"/>
            <stop offset="1" stop-color="#73DA7E"/>
        </linearGradient>
    </defs>
</svg>
