<svg width="40" height="40" viewBox="0 0 40 40" fill="none" xmlns="http://www.w3.org/2000/svg">
    <rect width="40" height="40" rx="20" fill="black" fill-opacity="0.3"/>
    <path d="M22.2875 28.75C22.1007 28.7506 21.9162 28.7094 21.7475 28.6294C21.5788 28.5493 21.4301 28.4325 21.3125 28.2875L15.275 20.7875C15.0911 20.5638 14.9906 20.2833 14.9906 19.9937C14.9906 19.7042 15.0911 19.4236 15.275 19.2L21.525 11.7C21.7371 11.4447 22.042 11.2842 22.3726 11.2537C22.7031 11.2232 23.0322 11.3253 23.2875 11.5375C23.5427 11.7497 23.7033 12.0545 23.7337 12.3851C23.7642 12.7156 23.6621 13.0447 23.45 13.3L17.8625 20L23.2625 26.7C23.4153 26.8835 23.5124 27.1069 23.5423 27.3438C23.5721 27.5808 23.5335 27.8213 23.4309 28.0369C23.3283 28.2526 23.1661 28.4344 22.9635 28.5607C22.7608 28.6871 22.5263 28.7528 22.2875 28.75Z" fill="white"/>
</svg>
