<svg width="22" height="30" viewBox="0 0 22 30" fill="none" xmlns="http://www.w3.org/2000/svg">
    <path d="M11 0.125C8.08369 0.128656 5.28779 1.36119 3.22564 3.55223C1.16348 5.74327 0.00345217 8.7139 1.17029e-05 11.8125C-0.00348119 14.3447 0.774992 16.8081 2.21601 18.825C2.21601 18.825 2.51601 19.2447 2.56501 19.3053L11 29.875L19.439 19.2999C19.483 19.2436 19.784 18.825 19.784 18.825L19.785 18.8218C21.2253 16.8058 22.0034 14.3435 22 11.8125C21.9966 8.7139 20.8365 5.74327 18.7744 3.55223C16.7122 1.36119 13.9163 0.128656 11 0.125ZM11 16.0625C10.2089 16.0625 9.43553 15.8132 8.77773 15.3462C8.11993 14.8792 7.60724 14.2155 7.30449 13.4389C7.00174 12.6623 6.92253 11.8078 7.07687 10.9834C7.23121 10.1589 7.61217 9.40167 8.17158 8.8073C8.73099 8.21292 9.44373 7.80815 10.2197 7.64416C10.9956 7.48018 11.7998 7.56434 12.5307 7.88601C13.2616 8.20768 13.8864 8.75242 14.3259 9.45133C14.7654 10.1502 15 10.9719 15 11.8125C14.9987 12.9392 14.5768 14.0194 13.827 14.8162C13.0771 15.6129 12.0605 16.0611 11 16.0625Z" fill="#FF6363"/>
</svg>
