<svg width="26" height="26" viewBox="0 0 26 26" fill="none" xmlns="http://www.w3.org/2000/svg">
    <path d="M21.6666 12.2778H13.7222V4.33334C13.7222 4.14179 13.6461 3.95809 13.5106 3.82265C13.3752 3.68721 13.1915 3.61111 13 3.61111C12.8084 3.61111 12.6247 3.68721 12.4893 3.82265C12.3538 3.95809 12.2777 4.14179 12.2777 4.33334V12.2778H4.33329C4.14175 12.2778 3.95805 12.3539 3.8226 12.4893C3.68716 12.6248 3.61107 12.8085 3.61107 13C3.60751 13.0939 3.6241 13.1874 3.65974 13.2743C3.69538 13.3612 3.74924 13.4395 3.81768 13.5038C3.88612 13.5681 3.96756 13.6171 4.0565 13.6473C4.14544 13.6775 4.23983 13.6883 4.33329 13.6789H12.2777V21.6667C12.2777 21.8582 12.3538 22.0419 12.4893 22.1774C12.6247 22.3128 12.8084 22.3889 13 22.3889C13.1915 22.3889 13.3752 22.3128 13.5106 22.1774C13.6461 22.0419 13.7222 21.8582 13.7222 21.6667V13.7222H21.6666C21.8582 13.7222 22.0419 13.6461 22.1773 13.5107C22.3128 13.3752 22.3888 13.1915 22.3888 13C22.3888 12.8085 22.3128 12.6248 22.1773 12.4893C22.0419 12.3539 21.8582 12.2778 21.6666 12.2778Z" fill="#757575"/>
</svg>
