<svg width="14" height="14" viewBox="0 0 14 14" fill="none" xmlns="http://www.w3.org/2000/svg">
    <path d="M9.60992 3.15466L10.8454 4.38958L9.60992 3.15466ZM10.4044 2.06675L7.06366 5.4075C6.89105 5.57987 6.77333 5.79949 6.72533 6.03867L6.41675 7.58333L7.96141 7.27417C8.20058 7.22633 8.41991 7.10908 8.59258 6.93642L11.9333 3.59567C12.0337 3.49527 12.1134 3.37609 12.1677 3.24493C12.222 3.11376 12.25 2.97318 12.25 2.83121C12.25 2.68923 12.222 2.54865 12.1677 2.41748C12.1134 2.28632 12.0337 2.16714 11.9333 2.06675C11.8329 1.96636 11.7138 1.88672 11.5826 1.83239C11.4514 1.77806 11.3108 1.7501 11.1689 1.7501C11.0269 1.7501 10.8863 1.77806 10.7552 1.83239C10.624 1.88672 10.5048 1.96636 10.4044 2.06675V2.06675Z" stroke="white" stroke-width="1.5" stroke-linecap="round" stroke-linejoin="round"/>
    <path d="M11.0834 8.75V10.5C11.0834 10.8094 10.9605 11.1062 10.7417 11.325C10.5229 11.5437 10.2261 11.6667 9.91671 11.6667H3.50004C3.19062 11.6667 2.89388 11.5437 2.67508 11.325C2.45629 11.1062 2.33337 10.8094 2.33337 10.5V4.08333C2.33337 3.77391 2.45629 3.47717 2.67508 3.25837C2.89388 3.03958 3.19062 2.91666 3.50004 2.91666H5.25004" stroke="white" stroke-width="1.5" stroke-linecap="round" stroke-linejoin="round"/>
</svg>
