<svg width="12" height="12" viewBox="0 0 12 12" fill="none" xmlns="http://www.w3.org/2000/svg">
    <g clip-path="url(#clip0_2669_5375)">
        <path d="M6 3.00037C5.20435 3.00037 4.44129 3.31644 3.87868 3.87905C3.31607 4.44165 3 5.20472 3 6.00037C3 6.50037 3.125 6.98537 3.35 7.40037L2.62 8.13037C2.21488 7.49382 1.99979 6.7549 2 6.00037C2 4.9395 2.42143 3.92208 3.17157 3.17194C3.92172 2.42179 4.93913 2.00037 6 2.00037V0.500366L8 2.50037L6 4.50037V3.00037ZM6 10.0004V11.5004L4 9.50037L6 7.50037V9.00037C6.79565 9.00037 7.55871 8.6843 8.12132 8.12169C8.68393 7.55908 9 6.79602 9 6.00037C9 5.50037 8.875 5.01537 8.65 4.60037L9.38 3.87037C9.78512 4.50691 10.0002 5.24584 10 6.00037C10 7.06123 9.57857 8.07865 8.82843 8.82879C8.07828 9.57894 7.06087 10.0004 6 10.0004V10.0004Z" fill="#979797"/>
    </g>
    <defs>
        <clipPath id="clip0_2669_5375">
            <rect width="12" height="12" fill="white" transform="matrix(1 0 0 -1 0 12.0004)"/>
        </clipPath>
    </defs>
</svg>
