<svg width="30" height="30" viewBox="0 0 30 30" fill="none" xmlns="http://www.w3.org/2000/svg">
    <path d="M21.25 25.625L27.5 15L21.25 4.375H8.75L2.5 15L8.75 25.625H21.25Z" stroke="#757575" stroke-width="2" stroke-linejoin="round"/>
    <path d="M15 18.125C15.8288 18.125 16.6237 17.7958 17.2097 17.2097C17.7958 16.6237 18.125 15.8288 18.125 15C18.125 14.1712 17.7958 13.3763 17.2097 12.7903C16.6237 12.2042 15.8288 11.875 15 11.875C14.1712 11.875 13.3763 12.2042 12.7903 12.7903C12.2042 13.3763 11.875 14.1712 11.875 15C11.875 15.8288 12.2042 16.6237 12.7903 17.2097C13.3763 17.7958 14.1712 18.125 15 18.125Z" stroke="#757575" stroke-width="2" stroke-linejoin="round"/>
</svg>
