<svg width="26" height="26" viewBox="0 0 26 26" fill="none" xmlns="http://www.w3.org/2000/svg">
    <path d="M13 19C18.523 19 23 13 23 13C23 13 18.523 7 13 7C7.477 7 3 13 3 13C3 13 7.477 19 13 19Z" stroke="#757575" stroke-width="2" stroke-linejoin="round"/>
    <path d="M13 15.5C13.663 15.5 14.2989 15.2366 14.7678 14.7678C15.2366 14.2989 15.5 13.663 15.5 13C15.5 12.337 15.2366 11.7011 14.7678 11.2322C14.2989 10.7634 13.663 10.5 13 10.5C12.337 10.5 11.7011 10.7634 11.2322 11.2322C10.7634 11.7011 10.5 12.337 10.5 13C10.5 13.663 10.7634 14.2989 11.2322 14.7678C11.7011 15.2366 12.337 15.5 13 15.5Z" stroke="#757575" stroke-width="2" stroke-linejoin="round"/>
</svg>
