<svg width="26" height="26" viewBox="0 0 26 26" fill="none" xmlns="http://www.w3.org/2000/svg">
    <path d="M3 8.2V17.8C3 18.1183 3.26339 18.4235 3.73223 18.6485C4.20107 18.8736 4.83696 19 5.5 19H20.5C21.163 19 21.7989 18.8736 22.2678 18.6485C22.7366 18.4235 23 18.1183 23 17.8V10.8052C23 10.6453 22.9334 10.4871 22.8041 10.3397C22.6749 10.1924 22.4857 10.0589 22.2475 9.9472L16.6975 7.342C16.2305 7.12279 15.6032 7.00004 14.95 7H5.5C4.83696 7 4.20107 7.12643 3.73223 7.35147C3.26339 7.57652 3 7.88174 3 8.2Z" stroke="#757575" stroke-width="2" stroke-linecap="round" stroke-linejoin="round"/>
</svg>
