<svg width="26" height="26" viewBox="0 0 26 26" fill="none" xmlns="http://www.w3.org/2000/svg">
    <path fill-rule="evenodd" clip-rule="evenodd" d="M3.8999 6.50001C3.8999 6.15523 4.03687 5.82457 4.28066 5.58077C4.52446 5.33698 4.85512 5.20001 5.1999 5.20001H20.7999C21.1447 5.20001 21.4753 5.33698 21.7191 5.58077C21.9629 5.82457 22.0999 6.15523 22.0999 6.50001C22.0999 6.84479 21.9629 7.17545 21.7191 7.41925C21.4753 7.66305 21.1447 7.80001 20.7999 7.80001H5.1999C4.85512 7.80001 4.52446 7.66305 4.28066 7.41925C4.03687 7.17545 3.8999 6.84479 3.8999 6.50001ZM3.8999 13C3.8999 12.6552 4.03687 12.3246 4.28066 12.0808C4.52446 11.837 4.85512 11.7 5.1999 11.7H20.7999C21.1447 11.7 21.4753 11.837 21.7191 12.0808C21.9629 12.3246 22.0999 12.6552 22.0999 13C22.0999 13.3448 21.9629 13.6755 21.7191 13.9193C21.4753 14.163 21.1447 14.3 20.7999 14.3H5.1999C4.85512 14.3 4.52446 14.163 4.28066 13.9193C4.03687 13.6755 3.8999 13.3448 3.8999 13ZM11.6999 19.5C11.6999 19.1552 11.8369 18.8246 12.0807 18.5808C12.3245 18.337 12.6551 18.2 12.9999 18.2H20.7999C21.1447 18.2 21.4753 18.337 21.7191 18.5808C21.9629 18.8246 22.0999 19.1552 22.0999 19.5C22.0999 19.8448 21.9629 20.1755 21.7191 20.4193C21.4753 20.663 21.1447 20.8 20.7999 20.8H12.9999C12.6551 20.8 12.3245 20.663 12.0807 20.4193C11.8369 20.1755 11.6999 19.8448 11.6999 19.5Z" fill="#757575"/>
</svg>
