<svg width="30" height="30" viewBox="0 0 30 30" fill="none" xmlns="http://www.w3.org/2000/svg">
    <path d="M9.375 16.875C9.87228 16.875 10.3492 16.6775 10.7008 16.3258C11.0525 15.9742 11.25 15.4973 11.25 15C11.25 14.5027 11.0525 14.0258 10.7008 13.6742C10.3492 13.3225 9.87228 13.125 9.375 13.125C8.87772 13.125 8.40081 13.3225 8.04918 13.6742C7.69754 14.0258 7.5 14.5027 7.5 15C7.5 15.4973 7.69754 15.9742 8.04918 16.3258C8.40081 16.6775 8.87772 16.875 9.375 16.875ZM15 16.875C15.4973 16.875 15.9742 16.6775 16.3258 16.3258C16.6775 15.9742 16.875 15.4973 16.875 15C16.875 14.5027 16.6775 14.0258 16.3258 13.6742C15.9742 13.3225 15.4973 13.125 15 13.125C14.5027 13.125 14.0258 13.3225 13.6742 13.6742C13.3225 14.0258 13.125 14.5027 13.125 15C13.125 15.4973 13.3225 15.9742 13.6742 16.3258C14.0258 16.6775 14.5027 16.875 15 16.875ZM22.5 15C22.5 15.4973 22.3025 15.9742 21.9508 16.3258C21.5992 16.6775 21.1223 16.875 20.625 16.875C20.1277 16.875 19.6508 16.6775 19.2992 16.3258C18.9475 15.9742 18.75 15.4973 18.75 15C18.75 14.5027 18.9475 14.0258 19.2992 13.6742C19.6508 13.3225 20.1277 13.125 20.625 13.125C21.1223 13.125 21.5992 13.3225 21.9508 13.6742C22.3025 14.0258 22.5 14.5027 22.5 15ZM28.125 15C28.125 22.2488 22.2488 28.125 15 28.125C7.75125 28.125 1.875 22.2488 1.875 15C1.875 7.75125 7.75125 1.875 15 1.875C22.2488 1.875 28.125 7.75125 28.125 15ZM26.25 15C26.25 8.78719 21.2128 3.75 15 3.75C8.78719 3.75 3.75 8.78719 3.75 15C3.75 21.2128 8.78719 26.25 15 26.25C21.2128 26.25 26.25 21.2128 26.25 15Z" fill="#BDBDBD"/>
</svg>
