<svg width="30" height="30" viewBox="0 0 30 30" fill="none" xmlns="http://www.w3.org/2000/svg">
    <path d="M22.5 24.375C22.5 25.3696 22.1049 26.3234 21.4016 27.0266C20.6984 27.7299 19.7446 28.125 18.75 28.125H5.625C4.63044 28.125 3.67661 27.7299 2.97335 27.0266C2.27009 26.3234 1.875 25.3696 1.875 24.375V11.25C1.875 10.2554 2.27009 9.30161 2.97335 8.59835C3.67661 7.89509 4.63044 7.5 5.625 7.5V9.375C5.12772 9.375 4.65081 9.57254 4.29917 9.92418C3.94754 10.2758 3.75 10.7527 3.75 11.25V24.375C3.75 24.8723 3.94754 25.3492 4.29917 25.7008C4.65081 26.0525 5.12772 26.25 5.625 26.25H18.75C19.2473 26.25 19.7242 26.0525 20.0758 25.7008C20.4275 25.3492 20.625 24.8723 20.625 24.375H22.5Z" fill="#BDBDBD"/>
    <path d="M11.25 3.75C10.7527 3.75 10.2758 3.94754 9.92418 4.29917C9.57254 4.65081 9.375 5.12772 9.375 5.625V18.75C9.375 19.2473 9.57254 19.7242 9.92418 20.0758C10.2758 20.4275 10.7527 20.625 11.25 20.625H24.375C24.8723 20.625 25.3492 20.4275 25.7008 20.0758C26.0525 19.7242 26.25 19.2473 26.25 18.75V5.625C26.25 5.12772 26.0525 4.65081 25.7008 4.29917C25.3492 3.94754 24.8723 3.75 24.375 3.75H11.25ZM11.25 1.875H24.375C25.3696 1.875 26.3234 2.27009 27.0266 2.97335C27.7299 3.67661 28.125 4.63044 28.125 5.625V18.75C28.125 19.7446 27.7299 20.6984 27.0266 21.4016C26.3234 22.1049 25.3696 22.5 24.375 22.5H11.25C10.2554 22.5 9.30161 22.1049 8.59835 21.4016C7.89509 20.6984 7.5 19.7446 7.5 18.75V5.625C7.5 4.63044 7.89509 3.67661 8.59835 2.97335C9.30161 2.27009 10.2554 1.875 11.25 1.875Z" fill="#BDBDBD"/>
</svg>
