<svg width="30" height="30" viewBox="0 0 30 30" fill="none" xmlns="http://www.w3.org/2000/svg">
    <path d="M3.7365 6.06899C3.95255 5.98958 4.18776 5.97836 4.41039 6.03683C4.63302 6.0953 4.83236 6.22066 4.9815 6.39599L10.5 12.888L16.017 6.39599C16.1661 6.2202 16.3655 6.09445 16.5884 6.03574C16.8113 5.97703 17.0468 5.98819 17.2632 6.06772C17.4795 6.14725 17.6662 6.2913 17.798 6.4804C17.9298 6.66949 18.0003 6.8945 18 7.12499V21.375C18 21.6734 17.8815 21.9595 17.6705 22.1705C17.4595 22.3815 17.1734 22.5 16.875 22.5C16.5766 22.5 16.2905 22.3815 16.0795 22.1705C15.8685 21.9595 15.75 21.6734 15.75 21.375V10.185L11.3565 15.354C11.2509 15.478 11.1196 15.5776 10.9717 15.6459C10.8238 15.7142 10.6629 15.7496 10.5 15.7496C10.3371 15.7496 10.1762 15.7142 10.0283 15.6459C9.8804 15.5776 9.74911 15.478 9.6435 15.354L5.25 10.185V21.375C5.25 21.6734 5.13147 21.9595 4.9205 22.1705C4.70952 22.3815 4.42337 22.5 4.125 22.5C3.82663 22.5 3.54048 22.3815 3.3295 22.1705C3.11853 21.9595 3 21.6734 3 21.375V7.12499C2.99996 6.89476 3.07055 6.67006 3.20226 6.48122C3.33396 6.29238 3.52043 6.14849 3.7365 6.06899ZM19.83 17.58C20.0409 17.3693 20.3269 17.251 20.625 17.251C20.9231 17.251 21.2091 17.3693 21.42 17.58L22.5 18.66V7.12499C22.5 6.82662 22.6185 6.54047 22.8295 6.32949C23.0405 6.11851 23.3266 5.99999 23.625 5.99999C23.9234 5.99999 24.2095 6.11851 24.4205 6.32949C24.6315 6.54047 24.75 6.82662 24.75 7.12499V18.66L25.83 17.58C25.933 17.4695 26.0572 17.3808 26.1952 17.3193C26.3332 17.2578 26.4822 17.2248 26.6332 17.2221C26.7843 17.2194 26.9343 17.2472 27.0744 17.3038C27.2145 17.3604 27.3417 17.4446 27.4486 17.5514C27.5554 17.6583 27.6396 17.7855 27.6962 17.9256C27.7528 18.0657 27.7806 18.2157 27.7779 18.3668C27.7752 18.5178 27.7422 18.6668 27.6807 18.8048C27.6192 18.9428 27.5305 19.067 27.42 19.17L24.42 22.17C24.2091 22.3807 23.9231 22.499 23.625 22.499C23.3269 22.499 23.0409 22.3807 22.83 22.17L19.83 19.17C19.6193 18.959 19.501 18.6731 19.501 18.375C19.501 18.0769 19.6193 17.7909 19.83 17.58Z" fill="#BDBDBD"/>
</svg>
