<svg width="100" height="100" viewBox="0 0 100 100" fill="none" xmlns="http://www.w3.org/2000/svg">
    <path d="M51 77C53.7614 77 56 74.7614 56 72C56 69.2386 53.7614 67 51 67C48.2386 67 46 69.2386 46 72C46 74.7614 48.2386 77 51 77Z" fill="#979797"/>
    <path d="M51 56.8333V23.5" stroke="#979797" stroke-width="6" stroke-linecap="round"/>
    <path d="M50.4445 93.4445C41.852 93.4445 33.4524 90.8965 26.308 86.1227C19.1636 81.349 13.5952 74.5639 10.307 66.6255C7.01882 58.687 6.15848 49.9518 7.83479 41.5244C9.51111 33.097 13.6488 25.356 19.7246 19.2801C25.8004 13.2043 33.5415 9.06665 41.9689 7.39033C50.3963 5.71402 59.1315 6.57437 67.0699 9.86257C75.0084 13.1508 81.7935 18.7192 86.5672 25.8636C91.3409 33.008 93.8889 41.4075 93.8889 50C93.8889 61.5222 89.3117 72.5724 81.1643 80.7199C73.0169 88.8673 61.9666 93.4445 50.4445 93.4445Z" stroke="#979797" stroke-width="2"/>
</svg>
