<svg width="100" height="100" viewBox="0 0 100 100" fill="none" xmlns="http://www.w3.org/2000/svg">
    <path d="M26.308 14.3217C33.4524 9.54797 41.852 7 50.4445 7C61.9666 7 73.0169 11.5772 81.1643 19.7246C89.3117 27.872 93.8889 38.9223 93.8889 50.4444C93.8889 59.0369 91.3409 67.4365 86.5672 74.5809C81.7935 81.7253 75.0084 87.2937 67.0699 90.5819C59.1315 93.8701 50.3963 94.7304 41.9689 93.0541C33.5415 91.3778 25.8004 87.2401 19.7246 81.1643C13.6488 75.0885 9.51111 67.3474 7.83479 58.92C6.15848 50.4926 7.01882 41.7574 10.307 33.819C13.5952 25.8805 19.1636 19.0954 26.308 14.3217Z" stroke="#979797" stroke-width="2"/>
    <path d="M26.5 51.5L42.8056 67.6667L74.5 36.5" stroke="#979797" stroke-width="6" stroke-linecap="round"/>
</svg>
