<svg width="20" height="20" viewBox="0 0 20 20" fill="none" xmlns="http://www.w3.org/2000/svg">
    <path fill-rule="evenodd" clip-rule="evenodd" d="M13.6042 12.4158L18.0875 16.8992C18.2451 17.0568 18.3336 17.2707 18.3335 17.4936C18.3334 17.7166 18.2448 17.9303 18.0871 18.0879C17.9294 18.2455 17.7156 18.334 17.4926 18.3339C17.2697 18.3338 17.0559 18.2452 16.8983 18.0875L12.415 13.6042C11.0748 14.6422 9.3894 15.1307 7.70177 14.9703C6.01415 14.8098 4.45103 14.0125 3.3304 12.7405C2.20978 11.4685 1.61583 9.81733 1.66938 8.12295C1.72293 6.42856 2.41996 4.81821 3.61867 3.61949C4.81738 2.42078 6.42773 1.72375 8.12212 1.6702C9.81651 1.61665 11.4677 2.2106 12.7397 3.33123C14.0117 4.45185 14.809 6.01497 14.9695 7.7026C15.1299 9.39022 14.6414 11.0756 13.6033 12.4158H13.6042ZM8.33333 13.3333C9.65941 13.3333 10.9312 12.8065 11.8689 11.8689C12.8065 10.9312 13.3333 9.65941 13.3333 8.33332C13.3333 7.00724 12.8065 5.73547 11.8689 4.79779C10.9312 3.86011 9.65941 3.33332 8.33333 3.33332C7.00725 3.33332 5.73548 3.86011 4.7978 4.79779C3.86012 5.73547 3.33333 7.00724 3.33333 8.33332C3.33333 9.65941 3.86012 10.9312 4.7978 11.8689C5.73548 12.8065 7.00725 13.3333 8.33333 13.3333Z" fill="#BDBDBD"/>
</svg>
