<svg width="100" height="80" viewBox="0 0 100 80" fill="none" xmlns="http://www.w3.org/2000/svg">
    <rect x="0.5" y="0.5" width="99" height="79" rx="9.5" fill="#F0F3F5" stroke="#DBDBDB"/>
    <path d="M75 25.5H99.5V70C99.5 75.2467 95.2467 79.5 90 79.5H65.5V35C65.5 29.7533 69.7533 25.5 75 25.5Z" fill="white" stroke="#DBDBDB"/>
    <path d="M77.3447 32.576L72.9447 44H74.8007L75.8727 41.056H80.7847L81.8567 44H83.7287L79.3287 32.576H77.3447ZM76.4007 39.616L78.3047 34.448H78.3687L80.2567 39.616H76.4007ZM88.6339 35.504C87.6099 35.504 86.7779 35.68 86.1699 36.064C85.4659 36.48 85.0179 37.152 84.8419 38.048L86.5219 38.192C86.6179 37.728 86.8579 37.392 87.2419 37.168C87.5619 36.976 87.9939 36.88 88.5219 36.88C89.7699 36.88 90.3939 37.456 90.3939 38.608V38.944L88.5379 38.992C87.3219 39.024 86.3619 39.264 85.6899 39.744C84.9539 40.24 84.5859 40.96 84.5859 41.888C84.5859 42.576 84.8419 43.136 85.3699 43.568C85.8499 44 86.5219 44.224 87.3859 44.224C88.1219 44.224 88.7619 44.08 89.3059 43.824C89.7859 43.584 90.1859 43.248 90.5059 42.832V44H92.0739V38.72C92.0739 37.712 91.8179 36.944 91.3219 36.416C90.7459 35.808 89.8499 35.504 88.6339 35.504ZM90.3939 40.176V40.656C90.3939 41.296 90.1219 41.84 89.6099 42.272C89.0979 42.704 88.4899 42.928 87.7699 42.928C87.3379 42.928 86.9859 42.816 86.7299 42.608C86.4579 42.4 86.3299 42.144 86.3299 41.824C86.3299 40.8 87.0979 40.256 88.6499 40.224L90.3939 40.176Z" fill="#333333"/>
    <path d="M10 0.5H48.5V79.5H10C4.7533 79.5 0.5 75.2467 0.5 70V10C0.5 4.75329 4.75329 0.5 10 0.5Z" fill="#333333" stroke="#4B4B4B"/>
    <path d="M24 25.5H48.5V79.5H14.5V35C14.5 29.7533 18.7533 25.5 24 25.5Z" fill="#0F0F0F" stroke="#4B4B4B"/>
    <path d="M26.3447 32.576L21.9447 44H23.8007L24.8727 41.056H29.7847L30.8567 44H32.7287L28.3287 32.576H26.3447ZM25.4007 39.616L27.3047 34.448H27.3687L29.2567 39.616H25.4007ZM37.6339 35.504C36.6099 35.504 35.7779 35.68 35.1699 36.064C34.4659 36.48 34.0179 37.152 33.8419 38.048L35.5219 38.192C35.6179 37.728 35.8579 37.392 36.2419 37.168C36.5619 36.976 36.9939 36.88 37.5219 36.88C38.7699 36.88 39.3939 37.456 39.3939 38.608V38.944L37.5379 38.992C36.3219 39.024 35.3619 39.264 34.6899 39.744C33.9539 40.24 33.5859 40.96 33.5859 41.888C33.5859 42.576 33.8419 43.136 34.3699 43.568C34.8499 44 35.5219 44.224 36.3859 44.224C37.1219 44.224 37.7619 44.08 38.3059 43.824C38.7859 43.584 39.1859 43.248 39.5059 42.832V44H41.0739V38.72C41.0739 37.712 40.8179 36.944 40.3219 36.416C39.7459 35.808 38.8499 35.504 37.6339 35.504ZM39.3939 40.176V40.656C39.3939 41.296 39.1219 41.84 38.6099 42.272C38.0979 42.704 37.4899 42.928 36.7699 42.928C36.3379 42.928 35.9859 42.816 35.7299 42.608C35.4579 42.4 35.3299 42.144 35.3299 41.824C35.3299 40.8 36.0979 40.256 37.6499 40.224L39.3939 40.176Z" fill="#DBDBDB"/>
</svg>
