<svg width="100" height="80" viewBox="0 0 100 80" fill="none" xmlns="http://www.w3.org/2000/svg">
    <rect x="0.5" y="0.5" width="99" height="79" rx="9.5" fill="#F0F3F5" stroke="#DBDBDB"/>
    <path d="M34.1379 25.1729H99.5V70C99.5 75.2467 95.2467 79.5 90 79.5H24.6379V34.6729C24.6379 29.4262 28.8912 25.1729 34.1379 25.1729Z" fill="white" stroke="#DBDBDB"/>
    <path d="M35.4 33.576L31 45H32.856L33.928 42.056H38.84L39.912 45H41.784L37.384 33.576H35.4ZM34.456 40.616L36.36 35.448H36.424L38.312 40.616H34.456ZM46.6893 36.504C45.6653 36.504 44.8333 36.68 44.2253 37.064C43.5213 37.48 43.0733 38.152 42.8973 39.048L44.5773 39.192C44.6733 38.728 44.9133 38.392 45.2973 38.168C45.6173 37.976 46.0493 37.88 46.5773 37.88C47.8253 37.88 48.4493 38.456 48.4493 39.608V39.944L46.5933 39.992C45.3773 40.024 44.4173 40.264 43.7453 40.744C43.0093 41.24 42.6413 41.96 42.6413 42.888C42.6413 43.576 42.8973 44.136 43.4253 44.568C43.9053 45 44.5773 45.224 45.4413 45.224C46.1773 45.224 46.8173 45.08 47.3613 44.824C47.8413 44.584 48.2413 44.248 48.5613 43.832V45H50.1293V39.72C50.1293 38.712 49.8733 37.944 49.3773 37.416C48.8013 36.808 47.9053 36.504 46.6893 36.504ZM48.4493 41.176V41.656C48.4493 42.296 48.1773 42.84 47.6653 43.272C47.1533 43.704 46.5453 43.928 45.8253 43.928C45.3933 43.928 45.0413 43.816 44.7853 43.608C44.5133 43.4 44.3853 43.144 44.3853 42.824C44.3853 41.8 45.1533 41.256 46.7053 41.224L48.4493 41.176Z" fill="#333333"/>
</svg>
